Patient4_TMGait_0pt5_01_right_09_EMG.mot
version=1
nRows=27
nColumns=33
inDegrees=no
endheader
time	1LAddLong	2LGlutMax	3LGlutMed	4LIliopsoas	5LSemiMemb	6LBicFemLong	7LRecFem	8LVastMed	9LVastLat	10LGasMed	11LTibAnt	12lTibPost	13LPeroneusLong	14LSol	15LExtDigLong	16LFlexDigLong	17RAddLong	18RGlutMax	19RGlutMed	20RIliopsoas	21RSemiMemb	22RBicFemLong	23RRecFem	24RVastMed	25RVastLat	26RGasMed	27RTibAnt	28RTibPost	29RPeroneusLong	30RSol	31RExtDigLong	32RFlexDigLong
11.92	0.000916	-0.35553	-0.010071	-0.010681	0.007019	0.00473	0.39414	0.002441	0.1471	-0.000305	-0.27557	-0.002899	0.034332	-0.15823	0.76996	-0.039825	-0.032043	-0.42129	-0.9436	0.058746	0.60089	0.024567	0.031586	0.033722	-0.16419	0.070953	0.94116	-0.034637	0.3067	1.0454	-0.002289	-0.019226
11.921	0.001373	-0.32791	-0.007172	0.008545	0.008698	-0.010681	0.34164	0.006561	0.13626	-0.017395	-0.31784	0.002441	0.065918	-0.048218	0.79697	-0.038605	-0.048065	-0.4541	-0.64941	0.058899	-0.18555	0.055695	0.032654	-0.018005	-0.16205	0.063629	1.109	-0.017853	0.29831	0.97702	-0.005798	-0.014191
11.922	-0.004883	-0.33249	0.023804	0.014954	0.015411	0.014496	0.27222	0.004883	0.1442	-0.016174	-0.28229	-0.004425	0.04715	-0.054169	0.45807	-0.039825	-0.081635	-0.47577	-0.24551	0.067291	-0.48126	0.084839	0.082397	-0.074005	-0.079651	0.055542	0.8429	0.032806	0.36514	0.35797	-0.004272	-0.005798
11.923	0.000153	-0.33218	0.050201	0.001068	0.018921	0.012817	0.21042	0.016327	0.13977	-0.021667	-0.070648	0.001221	0.012665	-0.052948	0.53711	-0.040741	-0.061035	-0.55832	-0.65918	0.048523	-0.50583	0.10757	0.12192	-0.13382	-0.020752	0.041504	0.27344	-0.02594	-0.027924	-0.14313	-0.005646	-0.011444
11.924	0.001221	-0.33936	0.029297	-0.009766	0.012054	0.003052	0.15427	0.000305	0.13458	-0.028076	0.055084	-0.004272	0.015106	0.061951	0.50751	-0.037384	-0.068817	-0.63599	-0.48248	-0.04303	-0.21668	0.088043	0.029144	-0.034637	0.072174	0.032654	0.12466	-0.028839	-0.215	-0.18601	-0.00412	-0.015259
11.925	-0.000305	-0.32394	0.014343	0.00061	0.011597	0.019531	0.11337	0.012054	0.11719	-0.030975	0.077972	0.002136	-0.037079	0.14206	0.1297	-0.049133	-0.048981	-0.67932	0.097961	-0.088348	0.12695	0.075531	-0.12604	-0.00885	0.13321	0.037689	-0.39276	-0.018616	0.29312	-0.44342	-0.003052	-0.02533
11.926	-0.009613	-0.31052	0.002594	0.011444	0.008087	0.028992	0.1033	0.015869	0.11383	-0.024567	0.3125	0.004578	-0.14557	0.17242	-0.12726	-0.057983	-0.059357	-0.66238	-0.11978	-0.065765	0.054932	0.040588	-0.16403	0.18036	0.17807	0.027008	-0.78568	-0.066833	0.569	-0.57312	-0.000916	-0.02594
11.927	-0.007324	-0.31723	-0.029144	0.001526	0.006866	0.042419	0.04715	0.006256	0.099945	0.032196	0.20172	0.00061	-0.16083	0.13092	-0.45197	-0.06073	-0.046082	-0.71503	-0.22964	-0.06485	0.13992	0.000763	-0.062256	0.22751	0.20844	0.017548	-0.32044	-0.22736	0.68451	-0.85525	-0.003967	-0.024872
11.928	-0.007477	-0.31555	-0.005341	-0.009308	0.00946	0.047913	-0.028687	0.022583	0.12466	0.040436	0.012207	-0.001526	-0.12009	0.073547	-0.1535	-0.052185	-0.046539	-0.78766	-0.27725	-0.027313	0.15076	-0.035248	0.011902	0.18051	0.13855	0.006866	-0.042877	0.10193	0.24918	-0.66605	-0.003357	-0.019836
11.929	-0.011902	-0.33066	-0.007629	0.007629	0.010529	0.047302	-0.10117	0.014648	0.1265	0.042419	-0.085754	-0.004578	-0.12528	0.036316	-0.10391	-0.063019	-0.032196	-0.87662	0.30533	-0.040741	0.1712	-0.041809	0.024109	0.095673	0.081024	-0.030975	-0.27466	0.075226	-0.12161	-0.2771	-0.002441	-0.015106
11.93	-0.012817	-0.31372	0.014038	-0.018768	0.002441	0.06485	-0.12726	0.013428	0.12268	0.032196	-0.079041	0.003967	-0.099487	0.025177	-0.049591	-0.074005	-0.016785	-1.0216	0.40161	-0.053558	0.09964	-0.099792	0.032654	0.034637	0.065765	-0.034943	-0.11612	-0.14877	-0.46005	-0.015106	-0.003052	-0.028839
11.931	-0.015106	-0.27863	-0.007629	0.007782	0.010376	0.045471	-0.10361	0.026093	0.13306	0.03006	0.047913	-0.009613	-0.091248	0.047607	0.27283	-0.056915	-0.010681	-1.1302	0.076752	-0.044403	0.13992	-0.10895	0.02243	0.083771	0.058594	-0.04364	0.37018	-0.38879	-0.4158	0.075226	-0.005951	-0.026703
11.932	-0.014343	-0.25314	-0.027771	-0.007172	0.000305	0.049896	-0.096436	0.013275	0.12604	0.055695	0.13931	-0.000763	-0.10117	0.10498	0.052338	-0.058594	-0.006561	-1.2025	0.30685	-0.024414	0.16663	-0.098572	0.1004	0.046539	0.02243	-0.055237	0.45227	0.086212	-0.51682	-0.1297	-0.002289	-0.027161
11.933	-0.007477	-0.23453	-0.027313	-0.033875	0.00885	0.053864	-0.049438	0.006409	0.11169	0.049896	0.069885	-0.00473	-0.068817	0.069733	-0.087738	-0.041962	0.000763	-1.2975	0.15472	0.008087	0.099945	-0.043335	0.18127	0.028839	-0.062408	-0.062256	0.36453	0.30563	-0.66589	0.23132	-0.000153	-0.023804
11.934	-0.011139	-0.177	-0.039978	-0.024567	0.002747	0.052032	0.024414	0.00473	0.097046	0.036163	0.059814	-0.008392	-0.045624	0.065918	0.009918	-0.038147	-0.007019	-1.3701	-0.578	0.026703	-0.022125	0.004272	0.22781	0.00061	-0.062408	-0.10407	0.5072	0.3067	-0.62118	0.51651	-0.002441	-0.023041
11.935	-0.008392	-0.16846	-0.053558	-0.016937	0.005493	0.052185	0.072784	0.002441	0.085602	0.046692	0.21729	-0.002594	-0.084991	0.059204	-0.053864	-0.041351	-0.009155	-1.3983	-0.65659	0.039215	-0.16937	0.07309	0.17105	-0.096741	-0.070496	-0.083923	0.33951	0.18021	-0.079498	0.30411	-0.002747	-0.024109
11.936	-0.005035	-0.15839	-0.030518	-0.029144	0.008392	0.044708	0.12421	0.00885	0.06073	0.037994	0.27115	-0.010223	-0.083466	0.020294	0.24994	-0.038757	-0.008392	-1.5724	-0.27893	0.07309	-0.10407	0.12222	0.14053	-0.10941	-0.055847	-0.090942	0.057068	0.079956	0.46356	-0.17853	-0.005188	-0.028839
11.937	-0.002747	-0.097656	-0.029755	-0.002136	0.009155	0.039215	0.10788	0.001526	0.054779	0.019531	0.028229	-0.000153	0.011139	-0.000916	0.3392	-0.019989	-0.010223	-1.5752	0.005493	0.035553	-0.080566	0.10239	-0.055389	-0.049438	-0.008545	-0.00412	0.16159	-0.098267	0.83984	-1.2291	-0.002899	-0.039215
11.938	0.001831	-0.054626	-0.02182	-0.010986	0.008087	0.025482	0.10635	-0.005188	0.037231	-0.014343	-0.1236	-0.008087	0.071869	-0.000763	0.35187	-0.023499	-0.018768	-1.5305	0.17425	0.029144	-0.028381	0.046997	-0.28381	-0.045929	0.05188	-0.10681	0.38742	-0.13397	0.37308	-2.0496	-0.005341	-0.047455
11.939	0.00061	0.026245	-0.029755	-0.007019	0.005646	0.032806	0.075378	0.001373	0.014191	0.014801	0.040588	-0.013123	0.049286	0.03952	-0.51682	-0.042572	-0.028992	-1.5048	0.17181	0.042419	0.036926	-0.11734	-0.27924	0.024414	0.086212	-0.097961	0.30655	-0.079803	-0.35065	-1.3539	-0.004883	-0.036011
11.94	0.000153	0.045624	-0.02243	0.001678	0.004272	0.039978	0.072327	-0.001678	0.018921	0.015411	0.055542	-0.010834	0.022278	0.046082	-0.067902	-0.031281	-0.003357	-1.5724	0.017242	0.053253	0.009308	-0.16647	-0.044708	0.053711	0.06012	-0.098267	0.68695	-0.91324	-0.50964	-0.034943	0	-0.027008
11.941	0.002441	0.053101	-0.023804	-0.006256	-0.000916	0.034027	0.078125	0.000305	0.024719	0.046539	-0.10941	-0.01709	-0.095825	0.065308	-0.34378	-0.042725	-0.035095	-1.4075	0.24216	0.028534	-0.063171	-0.13992	0.21622	0.053406	0.073395	0.038605	0.080872	0.34836	-0.23117	0.32776	-0.003052	-0.018616
11.942	-0.005646	0.1236	-0.031128	-0.00885	0.002441	0.02243	0.085754	0.000458	0.003357	0.052643	-0.31921	-0.019836	-0.11444	0.028992	-0.11688	-0.037537	-0.02655	-1.2584	0.088348	0.010834	-0.046997	-0.059967	0.26001	0.034485	0.45212	0.19379	-0.73502	0.23544	0.38803	1.2456	-0.009155	-0.012512
11.943	-0.001526	0.1564	-0.03067	0.001526	0.003967	0.016327	0.0383	0.00946	0.010529	0.035706	-0.31387	-0.0177	-0.048981	0.033875	0.0177	-0.014801	-0.008545	-1.1009	-0.10864	-0.013885	-0.016174	-0.052338	0.35217	0.000763	0.59723	0.14725	-0.76172	0.62439	0.83084	2.117	-0.005646	-0.00946
11.944	-0.002594	0.15076	-0.037079	-0.000458	0.005188	0.029602	-0.025177	0.011444	-0.003662	0.039673	-0.33676	-0.022888	-0.035858	0.061798	0.11581	-0.005798	0.021515	-1.0796	-0.24963	-0.068207	-0.010834	-0.12268	0.36774	-0.074158	0.5069	0.068512	-0.2948	0.28778	0.36499	1.861	-0.01236	-0.001526
11.945	-0.000763	0.16419	-0.041351	-0.010681	0.010071	0.000458	-0.008087	0.002899	-0.007172	0.056	-0.15335	-0.022278	-0.027313	0.056305	0.32852	-0.001221	0.029602	-1.084	-0.34103	-0.098724	-0.12238	-0.21591	0.38361	-0.13199	0.35584	0.00824	-0.73471	-0.038147	0.14404	1.6472	-0.00061	0.000153
11.946	0.001678	0.21561	-0.037842	-0.004883	0.007172	0.018921	-0.017853	0.015869	-0.025635	0.047913	0.1683	-0.02533	-0.015564	0.1059	0.17242	0.007629	0.00824	-1.0869	-0.64621	0.005341	-0.11749	-0.2504	0.11581	-0.11917	0.13809	0.00061	-0.77103	-0.1683	-0.071106	0.80505	-0.00473	0.005341
